# xmcd CD database file
#
# Track frame offsets:
#	150
#	14137
#	29482
#	43180
#	58047
#	70990
#	82790
#	98477
#	118270
#	140417
#	156900
#	176890
#	202587
#	223705
#	246512
#	267112
#	284787
#
# Disc length: 4068 seconds
#
# Revision: 0
# Processed by: cddbd v1.5.2PL0 Copyright (c) Steve Scherf et al.
# Submitted via: CDex 1.70beta2
#
DISCID=040fe211
DTITLE=Danny Berrios - Gloria a Dios - Dios se esta moviendo
DYEAR=1900
DGENRE=Merengue
TTITLE0=Gloria a Dios
TTITLE1=Me distes amor
TTITLE2=Da un poco mas de tu amor
TTITLE3=A Dios sea a gloria
TTITLE4=Bendicion
TTITLE5=Mio Dios es real
TTITLE6=Morir para el mundo
TTITLE7=Al murio en aquela cruz
TTITLE8=Mi corona em llevo
TTITLE9=Dios se esta moviendo
TTITLE10=Dulce amor
TTITLE11=Gracias
TTITLE12=Bendice adios
TTITLE13=Con cada latido
TTITLE14=Puedo empezar outra vez
TTITLE15=Yo estoy contigo
TTITLE16=Jesus Tu eres mi Señor
EXTD=
EXTT0=
EXTT1=
EXTT2=
EXTT3=
EXTT4=
EXTT5=
EXTT6=
EXTT7=
EXTT8=
EXTT9=
EXTT10=
EXTT11=
EXTT12=
EXTT13=
EXTT14=
EXTT15=
EXTT16=
PLAYORDER=
